<svg width="160" height="160" viewBox="0 0 160 160" fill="none" xmlns="http://www.w3.org/2000/svg">
<circle cx="79.8463" cy="79.8462" r="69" fill="#FFCEA7"/>
<g clip-path="url(#clip0)">
<path d="M101.293 62.5347H55.746C54.9154 62.5347 54.242 63.208 54.242 64.0387V86.7545C54.242 87.5852 54.9154 88.2585 55.746 88.2585C56.5766 88.2585 57.25 87.5852 57.25 86.7545V65.5426H99.7888V86.7544C99.7888 87.5851 100.462 88.2584 101.293 88.2584C102.123 88.2584 102.797 87.5851 102.797 86.7544V64.0386C102.797 63.208 102.123 62.5347 101.293 62.5347Z" fill="white"/>
<path d="M112.108 92.1253H109.338V60.54C109.338 58.0331 107.299 55.9937 104.792 55.9937H52.2471C49.7401 55.9937 47.7008 58.0331 47.7008 60.54V92.1253H44.9306C44.1831 92.1253 43.577 92.7312 43.577 93.4789V96.1362C43.577 99.8184 46.5727 102.814 50.2548 102.814H106.784C110.466 102.814 113.462 99.8184 113.462 96.1362V93.4789C113.462 92.7312 112.856 92.1253 112.108 92.1253ZM50.7087 60.54C50.7087 59.6918 51.3989 59.0016 52.2471 59.0016H104.791C105.64 59.0016 106.33 59.6917 106.33 60.54V92.1253H85.965C85.869 92.1222 85.7701 92.1303 85.6718 92.1493C85.0347 92.2719 84.5743 92.8296 84.5743 93.4784C84.5743 94.6209 83.6447 95.5503 82.5024 95.5503H74.5365C73.3939 95.5503 72.4647 94.6208 72.4647 93.4784C72.4647 92.7204 71.8367 92.1088 71.0797 92.125H50.7087V60.54ZM110.755 96.1362C110.755 98.3257 108.973 100.107 106.784 100.107H50.2548C48.0655 100.107 46.2842 98.3257 46.2842 96.1362V94.8325H69.9527C70.5378 96.8104 72.3713 98.2577 74.5364 98.2577H82.5023C84.6673 98.2577 86.5009 96.8103 87.0862 94.8325H110.755V96.1362H110.755Z" fill="white"/>
<path d="M80.7485 71.2774C80.161 70.6901 79.209 70.6901 78.6214 71.2774L69.1628 80.7364C68.5754 81.3238 68.5754 82.2761 69.1628 82.8634C69.4565 83.1571 69.8414 83.3039 70.2262 83.3039C70.6111 83.3039 70.9959 83.1569 71.2896 82.8634L80.7485 73.4045C81.3358 72.8172 81.3358 71.8649 80.7485 71.2774Z" fill="white"/>
<path d="M86.3547 76.7584C85.7673 76.171 84.8152 76.171 84.2278 76.7584L80.4597 80.5264C79.8724 81.1137 79.8724 82.0661 80.4597 82.6535C80.7535 82.9473 81.1384 83.094 81.5231 83.094C81.9082 83.094 82.2928 82.9473 82.5866 82.6535L86.3546 78.8855C86.9421 78.2982 86.9421 77.3458 86.3547 76.7584Z" fill="white"/>
</g>
<circle r="77.8462" transform="matrix(-1 0 0 1 79.8462 79.8462)" stroke="#FFCEA7" stroke-width="2.65385" stroke-linecap="round" stroke-linejoin="round"/>
<defs>
<clipPath id="clip0">
<rect width="69.8846" height="69.8846" fill="white" transform="translate(43.577 44.4614)"/>
</clipPath>
</defs>
</svg>
