<svg width="160" height="160" viewBox="0 0 160 160" fill="none" xmlns="http://www.w3.org/2000/svg">
<path d="M148.846 78.9614C148.846 117.069 117.954 147.961 79.8461 147.961C41.7385 147.961 10.8461 117.069 10.8461 78.9614C10.8461 40.8538 41.7385 9.96143 79.8461 9.96143C117.954 9.96143 148.846 40.8538 148.846 78.9614Z" fill="#FFD8B9"/>
<g clip-path="url(#clip0)">
<path d="M85.7243 73.5431C86.3727 73.5431 86.8991 73.0167 86.8991 72.3682C86.8991 71.7198 86.3727 71.1934 85.7243 71.1934C85.0744 71.1934 84.5494 71.7198 84.5494 72.3682C84.5494 73.0167 85.0744 73.5431 85.7243 73.5431Z" fill="white"/>
<path d="M73.9754 73.5431C74.6239 73.5431 75.1503 73.0167 75.1503 72.3682C75.1503 71.7198 74.6239 71.1934 73.9754 71.1934C73.3256 71.1934 72.8005 71.7198 72.8005 72.3682C72.8005 73.0167 73.3256 73.5431 73.9754 73.5431Z" fill="white"/>
<path d="M53.9988 101.746V104.325C53.9988 104.974 54.5248 105.5 55.1737 105.5H104.519C105.168 105.5 105.694 104.974 105.694 104.325V101.744C105.694 97.0717 103.069 92.7535 98.2115 90.9806C99.9669 89.4473 101.034 87.2013 101.034 84.7726C101.034 84.1241 100.508 83.5977 99.859 83.5977C97.0329 83.5977 94.651 81.599 94.0774 78.9478H97.473C99.4143 78.9478 100.994 77.3667 100.994 75.4231V70.0187C100.994 68.4863 100.011 67.1797 98.6442 66.6955V64.1443C98.6442 53.7792 90.2131 45.3462 79.8498 45.3462C69.4627 45.3462 61.0481 53.7525 61.0481 64.1443V66.6973C59.6809 67.1834 58.6983 68.4895 58.6983 70.0187V75.4231C58.6983 77.3667 60.2812 78.9478 62.2266 78.9478H65.615C65.0422 81.599 62.6626 83.5977 59.8392 83.5977C59.1903 83.5977 58.6644 84.1241 58.6644 84.7726C58.6644 87.2045 59.7342 89.4528 61.4942 90.9871C56.6556 92.7613 53.9988 97.1231 53.9988 101.746ZM98.585 85.8493C98.2193 87.8195 96.8636 89.4918 94.9691 90.2431L87.8514 89.3188L87.091 86.3467C89.3099 85.02 91.0782 83.1452 92.2632 80.9446C93.3688 83.5064 95.7433 85.4064 98.585 85.8493ZM89.2663 66.494C86.0207 66.494 83.38 63.8203 83.38 60.5338C83.38 59.8849 82.854 59.3589 82.2051 59.3589C81.5566 59.3589 81.0302 59.8849 81.0302 60.5338C81.0302 63.8203 78.3895 66.494 75.143 66.494H68.101C68.101 60.0157 73.3715 54.7452 79.8498 54.7452C86.3406 54.7452 91.5986 59.9982 91.5986 66.494H89.2663ZM68.0974 68.8438H75.143C78.1371 68.8438 80.7631 67.2242 82.2051 64.8074C83.6471 67.2242 86.2727 68.8438 89.2663 68.8438H91.595V74.2482C91.595 78.6921 89.1337 82.7065 85.1721 84.7244C83.5145 85.5688 81.7237 85.997 79.8498 85.997C77.981 85.997 76.1958 85.5721 74.5427 84.734C73.4334 84.1718 72.4233 83.4394 71.5399 82.5555C69.32 80.337 68.0974 77.3864 68.0974 74.2482V68.8438ZM74.7845 87.4096C76.3931 88.031 78.0912 88.3468 79.8498 88.3468C81.6154 88.3468 83.3199 88.0283 84.9353 87.4005L85.6811 90.317C85.2896 93.2258 82.8219 95.3961 79.8613 95.3961C76.9012 95.3961 74.4335 93.2267 74.0411 90.3188L74.7845 87.4096ZM98.6442 75.4231C98.6442 76.0711 98.1188 76.598 97.473 76.598H93.9447V68.8438H97.473C98.1188 68.8438 98.6442 69.3706 98.6442 70.0187V75.4231ZM79.8498 47.696C88.9175 47.696 96.2945 55.0747 96.2945 64.1443V66.494H93.9484C93.9484 58.7045 87.644 52.3955 79.8498 52.3955C72.0759 52.3955 65.7513 58.7201 65.7513 66.494H63.3978V64.1443C63.3978 55.0564 70.7569 47.696 79.8498 47.696ZM61.0481 75.4231V70.0187C61.0481 69.372 61.5759 68.8452 62.2266 68.8438H65.7476V76.598H62.2266C61.5768 76.598 61.0481 76.0711 61.0481 75.4231ZM67.431 80.9414C68.0749 82.1309 68.8945 83.2342 69.8785 84.2173C70.7064 85.0457 71.6293 85.7616 72.628 86.3578L71.8712 89.3193L64.7338 90.2454C62.837 89.4937 61.4795 87.8204 61.1133 85.8493C63.9541 85.4059 66.3272 83.5041 67.431 80.9414ZM64.6094 92.6305L64.7389 92.614H64.7398C64.7407 92.6135 64.7416 92.6135 64.7425 92.6135L71.9235 91.6819C72.8749 95.2171 76.081 97.7458 79.8613 97.7458C83.6416 97.7458 86.8473 95.2171 87.7982 91.6814C88.1561 91.7282 85.9119 91.4368 95.1118 92.631C100.262 93.3001 103.344 97.1602 103.344 101.744V103.15H56.3486V101.746C56.3486 97.2483 59.428 93.3033 64.6094 92.6305Z" fill="white"/>
<path d="M76.7088 81.6187C77.6951 82.0836 78.752 82.3195 79.8493 82.3195C80.9214 82.3195 81.9572 82.0932 82.9293 81.6471C83.519 81.3768 83.7774 80.6792 83.5066 80.0895C83.2363 79.4998 82.5387 79.2409 81.949 79.5117C81.2867 79.8155 80.5804 79.9697 79.8498 79.9697C79.1013 79.9697 78.3812 79.8095 77.7107 79.4933C77.1237 79.2166 76.4238 79.4681 76.1471 80.0551C75.8703 80.6421 76.1218 81.3424 76.7088 81.6187Z" fill="white"/>
<path d="M90.4237 100.095H95.1232C95.7722 100.095 96.2981 99.5694 96.2981 98.9205C96.2981 98.2715 95.7722 97.7456 95.1232 97.7456H90.4237C89.7748 97.7456 89.2488 98.2715 89.2488 98.9205C89.2488 99.5694 89.7748 100.095 90.4237 100.095Z" fill="white"/>
<path d="M99.8191 97.7456C100.468 97.7456 100.994 98.272 100.994 98.9205C100.994 99.569 100.468 100.095 99.8191 100.095C99.1706 100.095 98.6442 99.569 98.6442 98.9205C98.6442 98.272 99.1706 97.7456 99.8191 97.7456Z" fill="white"/>
</g>
<circle r="77.8462" transform="matrix(-1 0 0 1 79.8462 79.8462)" stroke="#FFCEA7" stroke-width="2.65385" stroke-linecap="round" stroke-linejoin="round"/>
<defs>
<clipPath id="clip0">
<rect width="60.1538" height="60.1538" fill="white" transform="translate(49.7692 45.3462)"/>
</clipPath>
</defs>
</svg>
