<svg width="160" height="160" viewBox="0 0 160 160" fill="none" xmlns="http://www.w3.org/2000/svg">
<circle cx="79.8461" cy="78.9619" r="69" fill="#FFCEA7"/>
<g clip-path="url(#clip0)">
<path d="M100.55 90.1154C98.8206 90.1154 97.1779 90.7927 95.9386 92.0176C94.6993 93.2569 94.0076 94.8708 94.0076 96.6001C94.0076 98.3293 94.6849 99.9433 95.9386 101.183C97.1923 102.407 98.8206 103.085 100.55 103.085C104.095 103.085 106.977 100.174 106.977 96.6001C106.977 93.0263 104.095 90.1154 100.55 90.1154ZM100.55 100.203C98.5613 100.203 96.8897 98.5599 96.8897 96.6001C96.8897 94.6403 98.5613 92.9975 100.55 92.9975C102.51 92.9975 104.095 94.6114 104.095 96.6001C104.095 98.5887 102.51 100.203 100.55 100.203ZM102.221 68.5143C101.962 68.2693 101.616 68.1396 101.256 68.1396H93.8635C93.0709 68.1396 92.4224 68.7881 92.4224 69.5807V81.3971C92.4224 82.1897 93.0709 82.8382 93.8635 82.8382H105.594C106.386 82.8382 107.035 82.1897 107.035 81.3971V73.4859C107.035 73.0824 106.862 72.6933 106.559 72.4195L102.221 68.5143ZM104.152 79.9561H95.3045V71.0073H100.694L104.152 74.1199V79.9561ZM65.3598 90.1154C63.6306 90.1154 61.9878 90.7927 60.7485 92.0176C59.5092 93.2569 58.8175 94.8708 58.8175 96.6001C58.8175 98.3293 59.4948 99.9433 60.7485 101.183C62.0022 102.407 63.6306 103.085 65.3598 103.085C68.9048 103.085 71.7868 100.174 71.7868 96.6001C71.7868 93.0263 68.9048 90.1154 65.3598 90.1154ZM65.3598 100.203C63.3712 100.203 61.6996 98.5599 61.6996 96.6001C61.6996 94.6403 63.3712 92.9975 65.3598 92.9975C67.3196 92.9975 68.9047 94.6114 68.9047 96.6001C68.9047 98.5887 67.3196 100.203 65.3598 100.203ZM55.7481 91.8879H52.8516V88.0547C52.8516 87.2622 52.2032 86.6137 51.4106 86.6137C50.618 86.6137 49.9695 87.2622 49.9695 88.0547V93.3289C49.9695 94.1215 50.618 94.7699 51.4106 94.7699H55.7481C56.5407 94.7699 57.1891 94.1215 57.1891 93.3289C57.1891 92.5363 56.5407 91.8879 55.7481 91.8879ZM63.0541 84.0342C63.0541 83.2417 62.4057 82.5932 61.6131 82.5932H44.1334C43.3408 82.5932 42.6923 83.2417 42.6923 84.0342C42.6923 84.8268 43.3408 85.4753 44.1334 85.4753H61.6131C62.4057 85.4753 63.0541 84.8412 63.0541 84.0342ZM47.0587 78.8321L64.5384 78.933C65.331 78.933 65.9794 78.2989 65.9939 77.5063C66.0083 76.6994 65.3598 76.0509 64.5672 76.0509L47.0875 75.95C47.0731 75.95 47.0731 75.95 47.0731 75.95C46.2805 75.95 45.632 76.5841 45.632 77.3766C45.6176 78.1836 46.2661 78.8321 47.0587 78.8321ZM49.9984 72.2898H67.4781C68.2707 72.2898 68.9192 71.6413 68.9192 70.8488C68.9192 70.0562 68.2707 69.4077 67.4781 69.4077H49.9984C49.2058 69.4077 48.5573 70.0562 48.5573 70.8488C48.5573 71.6413 49.2058 72.2898 49.9984 72.2898ZM112.928 70.3444L102.611 61.7991C102.351 61.5829 102.034 61.4676 101.688 61.4676H89.5548V56.2799C89.5548 55.4873 88.9063 54.8389 88.1138 54.8389H51.4106C50.618 54.8389 49.9695 55.4873 49.9695 56.2799V66.8283C49.9695 67.6208 50.618 68.2693 51.4106 68.2693C52.2032 68.2693 52.8516 67.6208 52.8516 66.8283V57.7209H86.6871V91.8879H74.8706C74.0781 91.8879 73.4296 92.5363 73.4296 93.3289C73.4296 94.1215 74.0781 94.7699 74.8706 94.7699H92.4657C93.2582 94.7699 93.9067 94.1215 93.9067 93.3289C93.9067 92.5363 93.2582 91.8879 92.4657 91.8879H89.5692V64.3497H101.184L110.579 72.1313L110.479 91.8591H108.98C108.187 91.8591 107.539 92.5075 107.539 93.3001C107.539 94.0927 108.187 94.7411 108.98 94.7411H111.905C112.698 94.7411 113.346 94.1071 113.346 93.3145L113.462 71.4684C113.447 71.0361 113.26 70.6182 112.928 70.3444Z" fill="white"/>
</g>
<circle r="77.8462" transform="matrix(-1 0 0 1 79.8462 79.8462)" stroke="#FFCEA7" stroke-width="2.65385" stroke-linecap="round" stroke-linejoin="round"/>
<defs>
<clipPath id="clip0">
<rect width="70.7692" height="70.7692" fill="white" transform="translate(42.6923 43.5771)"/>
</clipPath>
</defs>
</svg>
