<svg width="39" height="39" viewBox="0 0 39 39" fill="none" xmlns="http://www.w3.org/2000/svg">
<g clip-path="url(#clip0)">
<path d="M19.5 39C30.2696 39 39 30.2696 39 19.5C39 8.73045 30.2696 0 19.5 0C8.73045 0 0 8.73045 0 19.5C0 30.2696 8.73045 39 19.5 39Z" fill="#FFCEA7"/>
<path d="M14.5174 28.2966L24.5442 38.3234C32.8486 36.1089 39 28.5426 39 19.5001C39 19.3155 39 19.131 39 18.9464L31.1262 11.6877L14.5174 28.2966Z" fill="#FF9B53"/>
<path d="M19.9921 23.8674C20.8533 24.7286 20.8533 26.2049 19.9921 27.0661L18.2082 28.85C17.347 29.7112 15.8707 29.7112 15.0095 28.85L7.19717 20.9762C6.33597 20.115 6.33597 18.6387 7.19717 17.7775L8.98108 15.9936C9.84228 15.1324 11.3186 15.1324 12.1798 15.9936L19.9921 23.8674Z" fill="white"/>
<path d="M26.8202 10.2729C27.6814 9.41165 29.1578 9.41165 30.019 10.2729L31.8029 12.0568C32.6641 12.918 32.6641 14.3943 31.8029 15.2555L18.2698 28.7271C17.4086 29.5883 15.9322 29.5883 15.071 28.7271L13.2871 26.9432C12.4259 26.082 12.4259 24.6057 13.2871 23.7445L26.8202 10.2729Z" fill="white"/>
</g>
<defs>
<clipPath id="clip0">
<rect width="39" height="39" fill="white"/>
</clipPath>
</defs>
</svg>
