<svg width="75" height="73" viewBox="0 0 75 73" fill="none" xmlns="http://www.w3.org/2000/svg">
<circle cx="36.5" cy="36.5" r="36.5" fill="#FFF0E5"/>
<path d="M74.3532 31.4931C74.7671 31.0826 75 30.5239 75 29.941C74.9934 28.7258 74.0088 27.7429 72.7936 27.7385H72.7861C72.2045 27.7393 71.6474 27.9733 71.2397 28.3881L68.7456 30.8818C68.1511 30.7429 67.5427 30.6715 66.9322 30.6689V23.5289L69.7692 18.564C69.7765 18.5514 69.7761 18.537 69.7825 18.524C69.8027 18.4792 69.8182 18.4325 69.8287 18.3846C69.8431 18.3382 69.8528 18.2905 69.8575 18.2422C69.8584 18.2275 69.866 18.2151 69.866 18.2002C69.8615 18.1532 69.8542 18.1065 69.8439 18.0605C69.8396 18.0382 69.8399 18.016 69.8335 17.9942C69.4974 16.0634 64.5785 16 63.9985 16C63.4184 16 58.4995 16.0634 58.1634 17.9943C58.157 18.0161 58.1573 18.0384 58.153 18.0606C58.1427 18.1066 58.1354 18.1533 58.1309 18.2003C58.1309 18.2152 58.1385 18.2276 58.1394 18.2423C58.1441 18.2906 58.1537 18.3383 58.1682 18.3847C58.1787 18.4326 58.1942 18.4794 58.2144 18.5241C58.2208 18.5371 58.2204 18.5515 58.2277 18.5641L61.0648 23.529V30.6687H58.131V25.8068C58.6602 25.0397 58.9183 24.1179 58.8644 23.1875C58.8644 21.134 56.6423 19.2968 56.3887 19.0942C56.3705 19.0796 56.3483 19.0761 56.3293 19.0635C56.2493 19.0128 56.1611 18.9763 56.0685 18.9558C55.8829 18.9227 55.6916 18.961 55.533 19.063C55.5136 19.0757 55.491 19.0793 55.4725 19.0941C55.2189 19.2968 52.9968 21.1339 52.9968 23.1874C52.943 24.1178 53.2011 25.0395 53.7302 25.8066V30.6686H51.5299V24.0678C51.5265 24.0445 51.5218 24.0213 51.516 23.9985C51.5174 23.9746 51.5175 23.9506 51.5164 23.9267L50.7528 20.0446C50.5882 19.3846 49.9913 18.9243 49.3111 18.9331C48.631 18.9418 48.046 19.4171 47.8983 20.0811L47.1429 23.9266C47.1418 23.9505 47.1419 23.9745 47.1433 23.9984C47.1374 24.0212 47.1328 24.0444 47.1294 24.0677V30.6686H45.6625V27.7349C45.6615 26.9251 45.0054 26.2689 44.1956 26.268V24.5972C44.6478 24.3372 44.9274 23.856 44.929 23.3343V17.4669C44.9282 16.6571 44.272 16.001 43.4623 16H39.7952C38.9854 16.001 38.3292 16.6571 38.3283 17.4669V23.3344C38.33 23.8561 38.6095 24.3373 39.0617 24.5972V26.2682C38.2519 26.2691 37.5958 26.9253 37.5948 27.735V30.807C33.7694 31.5142 30.995 34.8528 31 38.743L31.015 58.5048C31.0041 58.9007 31.1538 59.2842 31.43 59.568C31.7062 59.8518 32.0855 60.0119 32.4816 60.0118H73.5123C73.9048 60.0119 74.2808 59.8548 74.5565 59.5754C74.8322 59.2961 74.9844 58.9179 74.9792 58.5255L74.9939 38.7429C74.9998 36.6454 74.1829 34.6293 72.7186 33.1276L74.3532 31.4931ZM72.2804 29.4217C72.4147 29.284 72.5987 29.206 72.7911 29.2054H72.7933C73.0914 29.2017 73.3619 29.3796 73.4768 29.6547C73.5916 29.9299 73.5277 30.2473 73.3154 30.4566L71.6023 32.1697C71.1907 31.8754 70.752 31.6209 70.2922 31.4096L72.2804 29.4217ZM59.7152 18.2109C60.1886 17.9053 61.6663 17.4669 63.9985 17.4669C66.3306 17.4669 67.8083 17.9053 68.2817 18.2109L65.7733 22.6009H62.2237L59.7152 18.2109ZM62.5316 25.5347V24.0678H65.4653V25.5347H62.5316ZM65.4653 27.0015V30.6687H62.5316V27.0015H65.4653ZM54.4638 23.1875C54.4638 22.2928 55.3046 21.2696 55.9307 20.6553C56.5567 21.2696 57.3975 22.2928 57.3975 23.1875C57.4281 23.7473 57.3065 24.3049 57.0457 24.8012H54.8155C54.5548 24.3049 54.4333 23.7473 54.4638 23.1875ZM55.1973 27.7349V26.2681H56.6641V27.7349H55.1973ZM56.6641 29.2018V30.6687H55.1972V29.2018H56.6641ZM49.3215 20.3633L49.9051 23.3343H48.7508L49.3215 20.3633ZM48.5964 24.8012H50.0632V30.6687H48.5964V24.8012ZM39.7951 17.4669H43.4622L43.4629 23.3344H39.795V17.4669H39.7951ZM39.0617 27.7349C39.8714 27.734 40.5276 27.0778 40.5286 26.2681V24.8012H42.7288V26.2681C42.7298 27.0778 43.3859 27.734 44.1957 27.7349V30.6687H39.0677L39.0616 30.6691V27.7349H39.0617ZM73.527 38.7415L73.5123 58.5449L32.4816 58.5241L32.4669 38.7414C32.4655 36.9898 33.1603 35.3096 34.3985 34.0706C35.6365 32.8316 37.3163 32.1354 39.0678 32.1355H66.9261C68.6777 32.1355 70.3574 32.8316 71.5954 34.0706C72.8335 35.3096 73.5284 36.9899 73.527 38.7415Z" fill="#FC4B37"/>
<path d="M58.5879 36.5419H58.5829C57.3173 36.5446 56.1103 37.0756 55.2531 38.0066L52.9969 40.419L50.739 38.0045C49.8818 37.0746 48.6756 36.5446 47.411 36.5419H47.406C46.1436 36.5454 44.9401 37.0762 44.0862 38.0059C42.2835 39.9779 42.2836 42.9996 44.0865 44.9714L52.4615 53.9123C52.6002 54.0603 52.794 54.1444 52.9969 54.1444C53.1998 54.1444 53.3936 54.0604 53.5323 53.9123L61.9073 44.9714C63.7101 42.9995 63.7101 39.9778 61.9073 38.0059C61.0536 37.0761 59.8502 36.5453 58.5879 36.5419ZM60.8384 43.9672L60.8373 43.9687L52.9969 52.3379L45.1555 43.9672C43.8724 42.5632 43.8729 40.4121 45.1565 39.0086C45.7346 38.3763 46.5505 38.0138 47.4073 38.0088H47.4105C48.2697 38.0128 49.0882 38.3749 49.6692 39.0079L52.4611 41.9932C52.603 42.1356 52.7958 42.2156 52.9968 42.2156C53.1979 42.2156 53.3907 42.1356 53.5326 41.9932L56.3227 39.0101C56.9037 38.376 57.7231 38.013 58.5832 38.0088H58.5864C59.4432 38.0138 60.2589 38.3763 60.8368 39.0087C62.1209 40.412 62.1215 42.5632 60.8384 43.9672Z" fill="#FC4B37"/>
<path d="M34.661 38.7422C34.4665 38.7421 34.2799 38.8194 34.1423 38.957C34.0048 39.0945 33.9276 39.2811 33.9276 39.4757V49.0103C33.9276 49.4154 34.2559 49.7436 34.6609 49.7436C35.066 49.7436 35.3943 49.4153 35.3943 49.0103V39.4757C35.3944 39.2812 35.3171 39.0946 35.1796 38.957C35.0422 38.8194 34.8555 38.7422 34.661 38.7422Z" fill="#FC4B37"/>
<path d="M34.661 51.2106C34.4665 51.2105 34.2799 51.2878 34.1423 51.4254C34.0048 51.5629 33.9276 51.7495 33.9276 51.9441V54.8778C33.9276 55.2829 34.2559 55.6112 34.6609 55.6112C35.066 55.6112 35.3943 55.2828 35.3943 54.8778V51.9441C35.3944 51.7495 35.3171 51.5629 35.1796 51.4254C35.0422 51.2877 34.8555 51.2105 34.661 51.2106Z" fill="#FC4B37"/>
</svg>
