<svg width="76" height="73" viewBox="0 0 76 73" fill="none" xmlns="http://www.w3.org/2000/svg">
<circle cx="36.5" cy="36.5" r="36.5" fill="#FFF0E5"/>
<path d="M59.5391 46.0586C59.0755 46.0586 58.6992 46.4349 58.6992 46.8984C58.6992 47.362 59.0755 47.7383 59.5391 47.7383C60.0026 47.7383 60.3789 47.362 60.3789 46.8984C60.3789 46.4349 60.0026 46.0586 59.5391 46.0586Z" fill="#FC4B37"/>
<path d="M71.8008 17H37.1992C34.8837 17 33 18.8837 33 21.1992V46.8984C33 49.2139 34.8837 51.0977 37.1992 51.0977H50.3008V54.9609H49.4609C48.3396 54.9609 47.2855 55.3979 46.492 56.1912C45.6987 56.9848 45.2617 58.0388 45.2617 59.1602C45.2617 59.624 45.6377 60 46.1016 60H62.8984C63.3623 60 63.7383 59.624 63.7383 59.1602C63.7383 56.8447 61.8545 54.9609 59.5391 54.9609H58.6992V51.0977H71.8008C74.1163 51.0977 76 49.2139 76 46.8984V21.1992C76 18.8837 74.1163 17 71.8008 17ZM37.1992 18.6797H71.8008C73.1901 18.6797 74.3203 19.8099 74.3203 21.1992V42.6992H70.457V23.3828C70.457 22.9189 70.0811 22.543 69.6172 22.543H62.8984C62.4346 22.543 62.0586 22.9189 62.0586 23.3828V42.6992H57.8548C57.8459 41.8305 57.8233 40.9743 57.7872 40.1436C57.6402 36.7232 57.3053 34.432 57.1311 33.4242C58.8639 32.1484 59.337 29.7837 58.2777 27.9465L55.3667 22.9048C55.2165 22.645 54.9393 22.4849 54.6394 22.4849C54.3392 22.4849 54.062 22.645 53.9121 22.9048L50.9999 27.9468C50.0013 29.679 50.3552 31.9226 51.924 33.2467C51.7423 34.2516 51.3755 36.6248 51.2161 40.142C51.1784 40.9815 51.1544 41.8384 51.1452 42.6992H46.9414V30.1016C46.9414 29.9684 46.9099 29.847 46.8584 29.7391C46.8561 29.7348 46.8548 29.7302 46.8528 29.7259L43.4935 23.0072C43.3511 22.7227 43.0604 22.543 42.7422 22.543C42.424 22.543 42.1333 22.7227 41.9909 23.0072L38.6315 29.7259C38.6296 29.7302 38.6283 29.7348 38.6263 29.7391C38.5738 29.848 38.543 29.9713 38.543 30.1016V42.6992H34.6797V21.1992C34.6797 19.8099 35.8099 18.6797 37.1992 18.6797ZM63.7383 42.6992V24.2227H68.7773V25.9023H67.9375C67.4736 25.9023 67.0977 26.2783 67.0977 26.7422C67.0977 27.2061 67.4736 27.582 67.9375 27.582H68.7773V30.1016H67.9375C67.4736 30.1016 67.0977 30.4775 67.0977 30.9414C67.0977 31.4053 67.4736 31.7812 67.9375 31.7812H68.7773V34.3008H67.9375C67.4736 34.3008 67.0977 34.6767 67.0977 35.1406C67.0977 35.6045 67.4736 35.9805 67.9375 35.9805H68.7773V39.3398H67.9375C67.4736 39.3398 67.0977 39.7158 67.0977 40.1797C67.0977 40.6436 67.4736 41.0195 67.9375 41.0195H68.7773V42.6992H63.7383ZM54.6394 34.2427C54.9445 34.2427 55.2483 34.2076 55.5455 34.142C55.7014 35.141 55.9304 36.9086 56.0658 39.3398H52.9397C53.0818 36.9102 53.3216 35.115 53.4873 34.0823C53.8593 34.1883 54.2467 34.2427 54.6394 34.2427ZM54.6394 32.563C52.7199 32.563 51.4821 30.4739 52.4548 28.7864L54.6394 25.0044L56.8227 28.786C57.7918 30.4667 56.5711 32.563 54.6394 32.563ZM52.8626 41.0195H56.1397C56.1574 41.5713 56.1695 42.1327 56.1754 42.6992H52.8249C52.8311 42.1363 52.8439 41.5749 52.8626 41.0195ZM43.582 42.6992V30.9414H45.2617V42.6992H43.582ZM40.2227 42.6992V30.9414H41.9023V42.6992H40.2227ZM40.7417 29.2617L42.7422 25.2607L44.7427 29.2617H40.7417ZM61.9146 58.3203H47.0844C47.2078 57.9703 47.4092 57.6494 47.6796 57.3788C48.1559 56.9027 48.7884 56.6406 49.4609 56.6406H59.5391C60.6341 56.6406 61.5681 57.3427 61.9146 58.3203ZM57.0195 54.9609H51.9805V51.0977H57.0195V54.9609ZM71.8008 49.418H37.1992C35.8099 49.418 34.6797 48.2878 34.6797 46.8984V44.3789H74.3203V46.8984C74.3203 48.2878 73.1901 49.418 71.8008 49.418Z" fill="#FC4B37"/>
<path d="M56.1797 46.0586H51.1406C50.6767 46.0586 50.3008 46.4346 50.3008 46.8984C50.3008 47.3623 50.6767 47.7383 51.1406 47.7383H56.1797C56.6436 47.7383 57.0195 47.3623 57.0195 46.8984C57.0195 46.4346 56.6436 46.0586 56.1797 46.0586Z" fill="#FC4B37"/>
</svg>
