<svg width="78" height="73" viewBox="0 0 78 73" fill="none" xmlns="http://www.w3.org/2000/svg">
<circle cx="36.5" cy="36.5" r="36.5" fill="#FFF0E5"/>
<path d="M77.3812 37.7016C77.3798 37.6744 77.3772 37.6471 77.3733 37.6199L75.0899 21.732C75.0511 21.4616 74.8902 21.2241 74.6536 21.0877C74.4171 20.9513 74.1309 20.931 73.8772 21.033L63.3692 25.2576C62.9132 25.4409 62.6923 25.9592 62.8755 26.4151C63.0588 26.8711 63.5772 27.0921 64.033 26.9088L73.4895 23.1069L75.5965 37.7676C75.5976 37.8089 75.6017 37.8503 75.6088 37.8918C76.0695 40.6039 75.5651 43.4104 74.1887 45.7943C72.6037 48.5397 70.0414 50.5018 66.9737 51.3192C63.9052 52.1369 60.6985 51.7115 57.944 50.1214C57.925 50.1103 57.9054 50.1011 57.8859 50.0917C58.4764 49.6429 59.0319 49.157 59.55 48.6372L69.9668 45.846C70.4416 45.7189 70.7233 45.2309 70.5961 44.7562C70.4689 44.2815 69.9806 43.9997 69.5063 44.127L61.491 46.2746C62.3718 44.9644 63.0608 43.5194 63.5317 41.9735L70.6826 40.0575C71.1574 39.9303 71.4391 39.4423 71.3119 38.9676C71.1847 38.493 70.6964 38.2112 70.2221 38.3384L64.9604 39.7483L66.939 36.3211L71.1203 35.2008C71.5951 35.0736 71.8768 34.5856 71.7495 34.1109C71.6223 33.6363 71.1341 33.3545 70.6598 33.4817L68.1974 34.1415L70.0908 30.8621C70.3365 30.4364 70.1907 29.8922 69.7651 29.6466C69.3395 29.4008 68.7953 29.5467 68.5497 29.9722L66.6563 33.2516L65.9965 30.7893C65.8693 30.3146 65.3812 30.0328 64.9067 30.1601C64.432 30.2872 64.1503 30.7752 64.2775 31.2499L65.3979 35.4312L64.2401 37.4365C64.2743 34.5882 63.5455 31.7734 62.0849 29.2435C60.2455 26.0578 57.3427 23.5836 53.9076 22.2728C53.902 22.2704 53.8963 22.268 53.8906 22.2656L49.8643 20.6315C49.4086 20.4467 48.8901 20.6661 48.7053 21.1214C48.5205 21.5769 48.7398 22.0958 49.1952 22.2806L53.1847 23.8997C53.2028 23.908 53.2212 23.9156 53.2399 23.9227C56.3085 25.0848 58.9024 27.2904 60.5437 30.1332C62.4541 33.4423 62.958 37.2994 61.9626 40.9943C61.0443 44.4025 58.9511 47.2954 56.0274 49.2283L54.5341 46.6418L57.7716 34.5595C57.8988 34.0848 57.6171 33.5969 57.1424 33.4697C56.6673 33.3426 56.1799 33.6242 56.0526 34.0989L53.2758 44.4624L49.9815 38.7564L52.2276 30.3744C52.3548 29.8996 52.0731 29.4118 51.5983 29.2846C51.1235 29.1573 50.6358 29.4391 50.5086 29.9138L48.7232 36.5768L46.1264 32.079L47.479 27.031C47.6063 26.5563 47.3246 26.0684 46.8498 25.9412C46.3749 25.8141 45.8873 26.0957 45.7601 26.5704L44.8679 29.8994L42.4078 25.6382C42.1621 25.2127 41.6179 25.0668 41.1923 25.3126C40.7667 25.5583 40.6209 26.1025 40.8667 26.5281L43.3268 30.7891L39.998 29.8971C39.5231 29.7699 39.0354 30.0517 38.9082 30.5264C38.781 31.0011 39.0627 31.489 39.5374 31.6162L44.5853 32.9689L47.1821 37.4667L40.5193 35.6815C40.0444 35.5543 39.5567 35.836 39.4295 36.3107C39.3023 36.7855 39.584 37.2733 40.0587 37.4006L48.4406 39.6465L51.7349 45.3525L41.3717 42.5757C40.8968 42.4485 40.4092 42.7302 40.282 43.2049C40.1547 43.6797 40.4364 44.1675 40.9112 44.2948L52.9934 47.5322L54.4865 50.1184C47.7624 53.4696 39.4872 51.056 35.6919 44.4823C34.0329 41.6088 33.425 38.226 33.9803 34.9571C33.9879 34.9129 33.9919 34.8689 33.9926 34.825L36.5334 17.142L42.428 19.5344C42.8838 19.7193 43.4023 19.4999 43.5871 19.0445C43.7719 18.589 43.5525 18.0701 43.0972 17.8853L36.149 15.0652C35.8956 14.9625 35.6085 14.9819 35.3713 15.1181C35.134 15.2543 34.9726 15.4922 34.9337 15.7632L32.2143 34.6856C32.2099 34.7156 32.2072 34.7457 32.206 34.7755C31.6154 38.416 32.3042 42.1743 34.1503 45.3718C37.1232 50.5211 42.54 53.4013 48.1083 53.4012C50.5677 53.4012 53.0561 52.8372 55.3769 51.6609L56.4704 53.555C56.6353 53.8404 56.9343 54 57.2419 54C57.3928 54 57.5459 53.9616 57.686 53.8807C58.1116 53.635 58.2575 53.0908 58.0116 52.6652L57.6062 51.9629C59.5723 52.9836 61.7169 53.5058 63.887 53.5058C65.0695 53.5058 66.2596 53.3512 67.432 53.0388C70.9598 52.0987 73.9069 49.8418 75.73 46.6841C77.295 43.9736 77.8797 40.788 77.3812 37.7016Z" fill="#FC4B37"/>
</svg>
