<svg width="77" height="73" viewBox="0 0 77 73" fill="none" xmlns="http://www.w3.org/2000/svg">
<circle cx="36.5" cy="36.5" r="36.5" fill="#FFF0E5"/>
<g clip-path="url(#clip0)">
<path d="M53.6792 40.4043C53.2314 40.1912 52.6955 40.3812 52.4822 40.8291L52.3332 41.1421C52.12 41.59 52.3102 42.1259 52.758 42.3392C52.8827 42.3986 53.014 42.4267 53.1435 42.4267C53.4792 42.4267 53.8012 42.2377 53.9551 41.9144L54.104 41.6014C54.3173 41.1534 54.127 40.6175 53.6792 40.4043Z" fill="#FC4B37"/>
<path d="M43.6132 35.1989C43.2624 34.8482 42.6937 34.8482 42.343 35.1989C41.5984 35.9436 40.3866 35.9436 39.6419 35.1989C39.2912 34.8482 38.7225 34.8482 38.3717 35.1989C38.021 35.5497 38.021 36.1184 38.3717 36.4691C39.0942 37.1916 40.0433 37.5529 40.9924 37.5529C41.9416 37.5529 42.8906 37.1916 43.6131 36.4691C43.9638 36.1185 43.9638 35.5498 43.6132 35.1989Z" fill="#FC4B37"/>
<path d="M73.8895 16.3863C70.7251 13.222 65.5831 13.2128 62.4061 16.3568C61.4145 15.8645 60.3616 15.4421 59.2515 15.0944C55.6096 13.9537 52.6302 13.996 52.3719 14.0016C47.4995 14.0049 43.2496 16.0493 41.2781 19.3387C41.0179 19.7728 40.8012 20.2228 40.6272 20.6858C39.6987 21.5699 35.5084 25.9005 35.5084 32.0409C35.5084 36.1308 33.5411 38.2661 32.3686 39.175C31.9304 39.5146 31.6932 40.0479 31.734 40.6015C31.7749 41.1554 32.088 41.6483 32.5716 41.9201C33.0135 42.1684 33.5104 42.4067 33.9909 42.6373C34.4158 42.8411 35.0195 43.1308 35.3139 43.3193V44.919C35.3139 45.1379 35.2722 45.3516 35.1898 45.5546L34.9671 46.1028C34.662 46.8534 34.7743 47.7127 35.2584 48.3594V48.5565C35.2584 49.1393 35.515 49.6787 35.9424 50.0446V51.0992C35.9424 53.3592 37.781 55.1978 40.041 55.1978H42.693C43.189 55.1978 43.5912 54.7957 43.5912 54.2996C43.5912 53.8036 43.189 53.4015 42.693 53.4015H40.041C38.7716 53.4015 37.7386 52.3686 37.7386 51.0991V49.5495C37.7386 49.1896 37.5238 48.8646 37.1928 48.7234L37.154 48.7069C37.0937 48.6811 37.0547 48.622 37.0547 48.5565V48.0495C37.0547 47.848 36.9869 47.6524 36.8624 47.4941L36.7039 47.2926C36.5895 47.1473 36.5617 46.9503 36.6313 46.7789L36.854 46.2306C37.024 45.812 37.1103 45.3708 37.1103 44.919V43.0069C37.1103 42.1414 36.2286 41.7184 34.768 41.0177C34.3844 40.8337 33.99 40.6444 33.6411 40.4578C35.0857 39.2788 37.3048 36.7071 37.3048 32.0408C37.3048 28.6643 38.8078 25.8508 40.1117 24.0447C40.1829 25.6097 40.6563 27.2463 41.5324 28.885C43.8375 33.1963 47.8517 35.0034 51.0772 36.4553C54.1461 37.8367 55.883 38.7063 55.897 40.514C55.9071 41.8414 55.6018 42.8181 54.9895 43.4168C54.2827 44.108 53.3443 44.0903 53.3387 44.0902C53.0372 44.0691 52.7547 44.2007 52.5711 44.4404C52.3875 44.6801 52.3457 44.9967 52.4446 45.2819C52.471 45.3579 53.1072 47.162 54.5639 48.92C56.3845 51.1171 58.6826 52.2764 61.245 52.3024L63.6584 59.3781C63.7857 59.7516 64.1347 59.9866 64.5083 59.9866C64.6044 59.9866 64.7023 59.9711 64.7983 59.9382C65.2679 59.7781 65.5186 59.2677 65.3584 58.7983L62.9817 51.8299C67.4625 49.4287 70.6128 45.7039 72.1147 41.0128C73.3118 37.2734 73.3691 33.0775 72.3575 29.1036C72.9118 28.7667 73.4254 28.3644 73.8894 27.9004C77.064 24.726 77.064 19.5608 73.8895 16.3863ZM70.404 40.4654C68.9946 44.8682 65.9685 48.3346 61.6471 50.5004C59.4621 50.5985 57.5562 49.6956 55.9806 47.8142C55.3453 47.0557 54.8855 46.275 54.5844 45.684C55.0969 45.5237 55.6855 45.2381 56.2154 44.7305C57.2102 43.7777 57.7075 42.3544 57.6933 40.5004C57.6699 37.4531 54.8258 36.1729 51.8146 34.8175C48.6827 33.4076 45.1329 31.8098 43.1165 28.0382C41.8639 25.6952 41.569 23.4673 42.2367 21.514C42.2395 21.5066 42.2421 21.499 42.2447 21.4916C42.391 21.0684 42.5819 20.6578 42.8191 20.262C44.4693 17.5084 48.1343 15.7978 52.3837 15.7978C52.3923 15.7978 52.4009 15.7977 52.4096 15.7974C52.4375 15.7965 55.2683 15.7289 58.7146 16.8084C63.3009 18.2451 66.6793 20.922 68.7559 24.7647C71.3802 29.6218 71.9964 35.4911 70.404 40.4654ZM71.8207 27.3083C71.42 26.1406 70.9255 25.0017 70.336 23.9109C68.8616 21.1825 66.7315 18.9423 64.06 17.2787C66.5505 15.1908 70.2788 15.3157 72.6194 17.6564C75.0935 20.1305 75.0935 24.1562 72.6194 26.6304C72.3704 26.8795 72.1034 27.1058 71.8207 27.3083Z" fill="#FC4B37"/>
<path d="M54.7702 56.0745L51.9562 51.2005L51.8611 47.8724C51.7815 45.0853 49.6257 42.813 46.8465 42.5869C44.8029 42.4203 42.8409 43.5536 41.9632 45.4065L41.9188 45.5001C40.7553 47.956 41.5947 50.9269 43.8713 52.411L46.6725 54.2369L49.7328 59.5374C49.8991 59.8255 50.2009 59.9866 50.5114 59.9865C50.6636 59.9865 50.8182 59.9477 50.9596 59.866C51.3891 59.6181 51.5364 59.0687 51.2883 58.6391L48.5697 53.9304L49.6529 53.305L50.7361 52.6796L53.2145 56.9723C53.4624 57.4019 54.0117 57.549 54.4414 57.3011C54.8711 57.0534 55.0183 56.5041 54.7702 56.0745ZM47.3716 52.5484L44.8524 50.9063C43.3248 49.9105 42.7616 47.917 43.5423 46.2691L43.5866 46.1754C44.1101 45.0706 45.2383 44.3672 46.4481 44.3672C46.5321 44.3672 46.6164 44.3706 46.701 44.3775C48.5657 44.5291 50.0122 46.0539 50.0655 47.9239L50.1519 50.9432L47.3716 52.5484Z" fill="#FC4B37"/>
<path d="M56.1163 58.4668C55.9492 58.2997 55.7174 58.2037 55.4812 58.2037C55.2441 58.2037 55.0133 58.2998 54.8462 58.4668C54.6791 58.6338 54.5831 58.8656 54.5831 59.1018C54.5831 59.338 54.6792 59.5697 54.8462 59.7369C55.0132 59.9039 55.2441 60 55.4812 60C55.7174 60 55.9491 59.9039 56.1163 59.7369C56.2833 59.5698 56.3794 59.338 56.3794 59.1018C56.3794 58.8656 56.2833 58.6339 56.1163 58.4668Z" fill="#FC4B37"/>
<path d="M48.7558 19.2651C48.5608 18.8091 48.033 18.5973 47.5768 18.7923C45.9928 19.4695 44.8503 20.6109 44.3599 22.0066C43.8684 23.405 44.053 24.9753 44.8935 26.5475C45.0554 26.8501 45.3656 27.0223 45.6864 27.0223C45.8294 27.0223 45.9743 26.9881 46.109 26.916C46.5465 26.6821 46.7115 26.138 46.4777 25.7004C45.8723 24.5681 45.73 23.5257 46.0546 22.6019C46.3761 21.687 47.1675 20.9206 48.283 20.4438C48.739 20.2491 48.9507 19.7213 48.7558 19.2651Z" fill="#FC4B37"/>
<path d="M50.9466 18.1331L50.8962 18.1332C50.4003 18.1361 50.0004 18.5406 50.0034 19.0367C50.0062 19.5309 50.4078 19.9295 50.9015 19.9295C50.9032 19.9295 50.905 19.9295 50.9068 19.9295L50.9466 19.9295C51.4426 19.9295 51.8447 19.5273 51.8447 19.0313C51.8447 18.5353 51.4426 18.1331 50.9466 18.1331Z" fill="#FC4B37"/>
</g>
<defs>
<clipPath id="clip0">
<rect width="46" height="46" fill="white" transform="translate(31 14)"/>
</clipPath>
</defs>
</svg>
